<?xml version="1.0" encoding="UTF-8" standalone="no"?>
<svg
   version="1.1"
   viewBox="0 0 3000 1500"
   id="svg7"
   sodipodi:docname="new-logo.svg"
   inkscape:version="1.4 (86a8ad7, 2024-10-11)"
   xmlns:inkscape="http://www.inkscape.org/namespaces/inkscape"
   xmlns:sodipodi="http://sodipodi.sourceforge.net/DTD/sodipodi-0.dtd"
   xmlns:xlink="http://www.w3.org/1999/xlink"
   xmlns="http://www.w3.org/2000/svg"
   xmlns:svg="http://www.w3.org/2000/svg">
  <sodipodi:namedview
     id="namedview7"
     pagecolor="#ffffff"
     bordercolor="#000000"
     borderopacity="0.25"
     inkscape:showpageshadow="2"
     inkscape:pageopacity="0.0"
     inkscape:pagecheckerboard="true"
     inkscape:deskcolor="#d1d1d1"
     inkscape:zoom="0.38419468"
     inkscape:cx="1391.2217"
     inkscape:cy="592.1477"
     inkscape:window-width="1920"
     inkscape:window-height="1017"
     inkscape:window-x="-8"
     inkscape:window-y="-8"
     inkscape:window-maximized="1"
     inkscape:current-layer="g7" />
  <defs
     id="defs4">
    <style
       id="style1">
      .cls-1 {
        fill: url(#linear-gradient-3);
      }

      .cls-2 {
        fill: url(#linear-gradient-2);
      }

      .cls-3 {
        fill: url(#linear-gradient);
      }

      .text {
        fill: #ffffff;
        font-family: 'Arial', sans-serif;
        font-size: 350px;
        font-weight: bold;
      }
    </style>
    <linearGradient
       id="linear-gradient"
       x1="1192.3"
       y1="413.7"
       x2="898.6"
       y2="678.3"
       gradientUnits="userSpaceOnUse">
      <stop
         offset="0"
         stop-color="#ff156a"
         id="stop1" />
      <stop
         offset="1"
         stop-color="#ff8a15"
         id="stop2" />
    </linearGradient>
    <linearGradient
       id="linear-gradient-2"
       x1="98.1"
       y1="921.5"
       x2="1173.1"
       y2="630.3"
       xlink:href="#linear-gradient" />
    <linearGradient
       id="linear-gradient-3"
       x1="878.8"
       y1="683.8"
       x2="878.8"
       y2="683.8"
       gradientUnits="userSpaceOnUse">
      <stop
         offset="0"
         stop-color="#fff"
         id="stop3" />
      <stop
         offset="1"
         stop-color="#000"
         id="stop4" />
    </linearGradient>
  </defs>
  <!-- Generator: Adobe Illustrator 28.6.0, SVG Export Plug-In . SVG Version: 1.2.0 Build 709)  -->
  <g
     transform="translate(100, 0)"
     id="g7">
    <g
       id="Layer_1">
      <g
         transform="scale(0.8)"
         id="g6">
        <path
           class="cls-3"
           d="M950.4,447.1c-3.2,7.7-47.7,142.5-63.7,206.6-2.8,11.1,8,20.8,18.7,16.8,74.1-27.4,297.8-110.2,366.2-135,8.9-3.2,12.6-13.8,7.7-21.9-25.2-41.3-91.3-149.8-91.3-149.8-18.5-30.4-58.2-40-88.5-21.5l-136.7,83.3c-9.4,6.8-9,13.2-12.4,21.3Z"
           id="path4" />
        <path
           class="cls-2"
           d="M1252.8,896.5l-175.6-115.1h-.1c-7.7-5.1-17-7.2-26.1-5.7l-606.9,110.4c-11.8,1.8-16.4-14.8-5.3-19.3l264.9-106.2c9.4-3.8,12.3-15.6,5.7-23.3l-182-214.1c-4.7-5.5,2.3-13.2,8.2-9.1l251,171.9c8.1,5.5,19.2,1.6,22-7.8l69.5-234.2c7.9-26.6,11.9-54.1,11.9-81.8v-120.1c0-35.6-28.8-64.4-64.4-64.4h-192.3c-35.6,0-64.4,28.8-64.4,64.4v169.7c0,24.6-27.4,39.4-48,25.9l-147.5-96.7c-29.8-19.5-69.7-11.2-89.2,18.6l-105.4,160.9c-19.5,29.8-11.2,69.7,18.6,89.2l181,118.6c18.8,12.3,18.7,39.9-.2,52l-176.6,113.5c-29.9,19.2-38.6,59.1-19.4,89l104,161.8c19.2,29.9,59.1,38.6,89,19.4l146-93.8c20.6-13.3,47.7,1.6,47.7,26.1v162.7c0,35.6,28.8,64.4,64.4,64.4h192.3c35.6,0,64.4-28.8,64.4-64.4v-158.8c0-24.6,27.4-39.4,48-25.9l138.8,91c29.8,19.5,69.7,11.2,89.2-18.6l105.4-160.9c19.5-29.8,11.2-69.7-18.6-89.2Z"
           id="path5" />
        <path
           class="cls-1"
           d="M878.8,683.8"
           id="path6" />
      </g>
    </g>
    <text
       x="1150"
       y="750"
       class="text font-bold"
       id="text6"><tspan
         sodipodi:role="line"
         id="tspan8"
         x="1150"
         y="750">Oraculum</tspan></text>
  </g>
</svg>
