<svg width="34" height="1747" viewBox="0 0 34 1747" fill="none" xmlns="http://www.w3.org/2000/svg">
<path d="M0.662109 16.4995C0.662109 7.38681 8.04941 -0.000488281 17.1621 -0.000488281C26.2748 -0.000488281 33.6621 7.38681 33.6621 16.4995V192.616C33.6621 194.338 32.5554 195.897 30.8832 196.307C16.2365 199.898 14.507 189.236 2.39154 199.462C1.7238 200.026 0.662109 199.576 0.662109 198.702V16.4995Z" fill="white" fill-opacity="0.03"/>
<path d="M1.16211 16.4995C1.16211 7.66295 8.32555 0.499512 17.1621 0.499512C25.9987 0.499512 33.1621 7.66296 33.1621 16.4995V192.616C33.1621 194.132 32.1901 195.472 30.7641 195.821C24.618 197.328 20.8301 196.282 17.4736 195.356C16.9095 195.2 16.3575 195.048 15.8087 194.911C13.8871 194.434 11.987 194.152 9.77996 194.674C7.58135 195.193 5.13186 196.495 2.06904 199.08C1.69499 199.396 1.16211 199.11 1.16211 198.702V16.4995Z" stroke="#F6F6F4" stroke-opacity="0.2"/>
<path d="M33.6621 1729.54C33.6621 1738.66 26.2748 1746.04 17.1621 1746.04C8.04941 1746.04 0.66211 1738.66 0.662111 1729.54L0.66213 1514.43C0.66213 1512.71 1.76886 1511.15 3.44105 1510.74C18.0878 1507.15 19.8173 1517.81 31.9327 1507.58C32.6004 1507.02 33.6621 1507.47 33.6621 1508.34L33.6621 1729.54Z" fill="white" fill-opacity="0.01"/>
<path d="M33.1621 1729.54C33.1621 1738.38 25.9987 1745.54 17.1621 1745.54C8.32555 1745.54 1.16211 1738.38 1.16211 1729.54L1.16213 1514.43C1.16213 1512.91 2.13415 1511.57 3.56012 1511.22C9.7062 1509.72 13.4942 1510.76 16.8506 1511.69C17.4148 1511.84 17.9667 1512 18.5156 1512.13C20.4371 1512.61 22.3372 1512.89 24.5443 1512.37C26.7429 1511.85 29.1924 1510.55 32.2552 1507.96C32.6292 1507.65 33.1621 1507.93 33.1621 1508.34L33.1621 1729.54Z" stroke="white" stroke-opacity="0.1"/>
<path d="M0.662145 369.419C0.645278 375.204 6.64354 368.999 14.6218 369C21.5509 369.33 29.4037 371.099 32.4053 371.83C33.0434 371.985 33.6621 371.502 33.6621 370.845V289.767C33.6621 287.746 32.1453 286.023 30.1283 285.89C16.3241 284.985 15.7314 290.152 2.01595 285.477C1.3581 285.253 0.66317 285.735 0.664088 286.43C0.675926 295.394 0.735465 344.269 0.662145 369.419Z" fill="white" fill-opacity="0.03"/>
<path d="M14.6218 368.5L14.6338 368.5L14.6457 368.5C21.6254 368.833 29.5173 370.612 32.5236 371.344C32.849 371.423 33.1621 371.176 33.1621 370.845V289.767C33.1621 287.992 31.8327 286.503 30.0956 286.389C24.5004 286.022 21.1225 286.661 18.0937 287.233C17.4257 287.359 16.7747 287.482 16.1205 287.591C12.4492 288.199 8.78875 288.314 1.85466 285.951C1.50978 285.833 1.16364 286.089 1.16409 286.429C1.17593 295.393 1.23547 344.269 1.16214 369.42C1.16013 370.11 1.24947 370.562 1.38354 370.851C1.50766 371.119 1.67016 371.251 1.87469 371.32C2.10438 371.398 2.4303 371.41 2.88655 371.335C3.33784 371.26 3.86918 371.109 4.48631 370.904C4.90633 370.765 5.36111 370.602 5.84714 370.428C8.18021 369.593 11.2336 368.499 14.6218 368.5Z" stroke="white" stroke-opacity="0.2"/>
<path d="M0.662109 461.335C0.662109 460.159 1.67141 459.237 2.84236 459.343L13.6944 460.325C15.7453 460.511 17.8086 460.515 19.8603 460.338L31.49 459.334C32.6581 459.233 33.6621 460.154 33.6621 461.326L33.6621 572.582C33.6621 573.541 32.9818 574.368 32.0364 574.528C15.6176 577.308 14.7123 571.429 0.662109 578.982L0.662109 461.335Z" fill="white" fill-opacity="0.03"/>
<path d="M1.16211 461.335C1.16211 460.453 1.91909 459.762 2.7973 459.841L13.6493 460.823C15.7296 461.012 17.8223 461.016 19.9033 460.836L31.533 459.832C32.4091 459.756 33.1621 460.447 33.1621 461.326L33.1621 572.582C33.1621 573.304 32.651 573.917 31.9529 574.035C25.3728 575.149 21.3302 574.861 17.8725 574.615C17.0518 574.556 16.264 574.5 15.4831 574.466C13.4368 574.375 11.4435 574.435 9.06651 575.004C6.86219 575.532 4.34634 576.492 1.16211 578.151L1.16211 461.335Z" stroke="white" stroke-opacity="0.2"/>
<path d="M0.662109 665.374C0.662109 664.198 1.67141 663.276 2.84236 663.382L13.6944 664.364C15.7453 664.55 17.8086 664.554 19.8603 664.377L31.49 663.373C32.6581 663.272 33.6621 664.193 33.6621 665.365L33.6621 760.621C33.6621 761.58 32.9818 762.407 32.0364 762.567C15.6176 765.347 14.7123 759.468 0.662109 767.021L0.662109 665.374Z" fill="white" fill-opacity="0.03"/>
<path d="M1.16211 665.374C1.16211 664.492 1.91909 663.801 2.7973 663.88L13.6493 664.862C15.7296 665.051 17.8223 665.055 19.9033 664.875L31.533 663.871C32.4091 663.795 33.1621 664.486 33.1621 665.365L33.1621 760.621C33.1621 761.343 32.651 761.956 31.9529 762.074C25.3728 763.189 21.3302 762.9 17.8725 762.654C17.0518 762.595 16.264 762.539 15.4831 762.505C13.4368 762.414 11.4435 762.474 9.06651 763.043C6.86219 763.571 4.34634 764.531 1.16211 766.19L1.16211 665.374Z" stroke="white" stroke-opacity="0.2"/>
<path d="M0.662109 853.566C0.662109 852.39 1.67141 851.468 2.84236 851.574L13.6944 852.556C15.7453 852.741 17.8086 852.746 19.8603 852.568L31.49 851.564C32.6581 851.463 33.6621 852.384 33.6621 853.557L33.6621 963.813C33.6621 964.772 32.9818 965.599 32.0364 965.759C15.6176 968.539 14.7123 962.659 0.662109 970.212L0.662109 853.566Z" fill="white" fill-opacity="0.01"/>
<path d="M1.16211 853.566C1.16211 852.684 1.91909 851.992 2.7973 852.072L13.6493 853.054C15.7296 853.242 17.8223 853.246 19.9033 853.067L31.533 852.062C32.4091 851.987 33.1621 852.677 33.1621 853.557L33.1621 963.813C33.1621 964.535 32.651 965.148 31.9529 965.266C25.3728 966.38 21.3302 966.092 17.8725 965.845C17.0518 965.787 16.264 965.731 15.4831 965.696C13.4368 965.606 11.4435 965.666 9.06651 966.235C6.86219 966.762 4.34634 967.722 1.16211 969.382L1.16211 853.566Z" stroke="white" stroke-opacity="0.1"/>
<path d="M0.662109 1058.25C0.662109 1057.08 1.67141 1056.16 2.84236 1056.26L13.6944 1057.24C15.7453 1057.43 17.8086 1057.43 19.8603 1057.26L31.49 1056.25C32.6581 1056.15 33.6621 1057.07 33.6621 1058.24L33.6621 1185.5C33.6621 1186.46 32.9818 1187.29 32.0364 1187.45C15.6176 1190.23 14.7123 1184.35 0.662109 1191.9L0.662109 1058.25Z" fill="white" fill-opacity="0.01"/>
<path d="M1.16211 1058.25C1.16211 1057.37 1.91909 1056.68 2.7973 1056.76L13.6493 1057.74C15.7296 1057.93 17.8223 1057.93 19.9033 1057.75L31.533 1056.75C32.4091 1056.67 33.1621 1057.36 33.1621 1058.24L33.1621 1185.5C33.1621 1186.22 32.651 1186.84 31.9529 1186.95C25.3728 1188.07 21.3302 1187.78 17.8725 1187.53C17.0518 1187.47 16.264 1187.42 15.4831 1187.38C13.4368 1187.29 11.4435 1187.35 9.06651 1187.92C6.86219 1188.45 4.34634 1189.41 1.16211 1191.07L1.16211 1058.25Z" stroke="white" stroke-opacity="0.1"/>
<path d="M0.662109 1279.35C0.662109 1278.17 1.67141 1277.25 2.84236 1277.36L13.6944 1278.34C15.7453 1278.52 17.8086 1278.53 19.8603 1278.35L31.49 1277.35C32.6581 1277.24 33.6621 1278.17 33.6621 1279.34L33.6621 1418.59C33.6621 1419.55 32.9818 1420.38 32.0364 1420.54C15.6176 1423.32 14.7123 1417.44 0.662109 1424.99L0.662109 1279.35Z" fill="white" fill-opacity="0.01"/>
<path d="M1.16211 1279.35C1.16211 1278.47 1.91909 1277.77 2.7973 1277.85L13.6493 1278.84C15.7296 1279.02 17.8223 1279.03 19.9033 1278.85L31.533 1277.84C32.4091 1277.77 33.1621 1278.46 33.1621 1279.34L33.1621 1418.59C33.1621 1419.32 32.651 1419.93 31.9529 1420.05C25.3728 1421.16 21.3302 1420.87 17.8725 1420.63C17.0518 1420.57 16.264 1420.51 15.4831 1420.48C13.4368 1420.39 11.4435 1420.45 9.06651 1421.02C6.86219 1421.54 4.34634 1422.5 1.16211 1424.16L1.16211 1279.35Z" stroke="white" stroke-opacity="0.1"/>
</svg>
